# xmcd
#
# Track frame offsets: 
#        150
#        20551
#        40868
#        64598
#        84497
#        99910
#        126155
#        147419
#        173824
#        181226
#        196096
#        217089
#        236507
#        259819
#        283208
#        302438
#        319711
#
# Disc length: 4416 seconds
#
# Revision: 0
# Processed by: cddbd v1.5.2PL0 Copyright (c) Steve Scherf et al.
# Submitted via: ExactAudioCopy v1.3
#
DISCID=ed113e11
DTITLE=Magic Sam - Magic Sam Live
DYEAR=1990
DGENRE=Chicago Blues
TTITLE0=Every Night About This Time
TTITLE1=Don't Believe You'd Let Me Down
TTITLE2=Mole's Blues
TTITLE3=I Just Got To Know
TTITLE4=Tore Down
TTITLE5=You Were Wrong
TTITLE6=Backstroke
TTITLE7=Come On In This House
TTITLE8=Riding High
TTITLE9=San-Ho-Say
TTITLE10=I Need You So Bad
TTITLE11=Strange Things Happening
TTITLE12=I Feel So Good
TTITLE13=All Your Love
TTITLE14=Sweet Home Chicago
TTITLE15=Looking Good
TTITLE16=Looking Good (Encore)
EXTD=
EXTT0=
EXTT1=
EXTT2=
EXTT3=
EXTT4=
EXTT5=
EXTT6=
EXTT7=
EXTT8=
EXTT9=
EXTT10=
EXTT11=
EXTT12=
EXTT13=
EXTT14=
EXTT15=
EXTT16=
PLAYORDER=
